<?xml version="1.0" standalone="no"?>
<!DOCTYPE svg PUBLIC "-//W3C//DTD SVG 20010904//EN"
 "http://www.w3.org/TR/2001/REC-SVG-20010904/DTD/svg10.dtd">
<svg version="1.0" xmlns="http://www.w3.org/2000/svg"
 width="272.000000pt" height="272.000000pt" viewBox="0 0 272.000000 272.000000"
 preserveAspectRatio="xMidYMid meet">
<metadata>
Created by potrace 1.14, written by Peter Selinger 2001-2017
</metadata>
<g transform="translate(0.000000,272.000000) scale(0.100000,-0.100000)"
fill="#000000" stroke="none">
<path d="M259 2661 c0 -9 -1 -410 -1 -891 0 -567 4 -901 11 -950 5 -41 13 -93
16 -115 11 -73 71 -233 114 -304 40 -65 172 -211 191 -211 5 0 28 -13 52 -29
112 -74 268 -106 478 -97 158 7 169 8 235 28 106 33 188 79 268 149 139 123
221 292 261 544 11 73 14 261 15 991 l1 900 -205 1 -205 0 -1 -876 c0 -482 -2
-894 -4 -916 -18 -213 -104 -366 -241 -426 -43 -19 -146 -38 -187 -33 -91 10
-116 16 -163 39 -117 57 -194 190 -220 380 -4 28 -8 446 -9 930 -2 484 -3 885
-4 891 -1 8 -63 11 -201 11 -176 0 -200 -2 -201 -16z"/>
<path d="M2214 2662 c-111 -56 -137 -194 -54 -281 143 -149 381 28 280 208
-12 20 -36 46 -54 59 -41 28 -130 36 -172 14z"/>
</g>
</svg>
